<svg xmlns="http://www.w3.org/2000/svg" version="1.1" xmlns:xlink="http://www.w3.org/1999/xlink" xmlns:svgjs="http://svgjs.dev/svgjs" width="1000" height="224" viewBox="0 0 1000 224"><g transform="matrix(1,0,0,1,-0.6060604946184185,0.6129758505177421)"><svg viewBox="0 0 396 89" data-background-color="#ffffff" preserveAspectRatio="xMidYMid meet" height="224" width="1000" xmlns="http://www.w3.org/2000/svg" xmlns:xlink="http://www.w3.org/1999/xlink"><g id="tight-bounds" transform="matrix(1,0,0,1,0.24000004413107945,-0.2435484406074977)"><svg viewBox="0 0 395.52 89.48709405708937" height="89.48709405708937" width="395.52"><g><svg viewBox="0 0 395.52 89.48709405708937" height="89.48709405708937" width="395.52"><g><svg viewBox="0 0 395.52 89.48709405708937" height="89.48709405708937" width="395.52"><g id="textblocktransform"><svg viewBox="0 0 395.52 89.48709405708937" height="89.48709405708937" width="395.52" id="textblock"><g><svg viewBox="0 0 395.52 89.48709405708937" height="89.48709405708937" width="395.52"><g transform="matrix(1,0,0,1,0,0)"><svg width="395.52" viewBox="-2.049999952316284 -47 213.6800079345703 48.349998474121094" height="89.48709405708937" data-palette-color="#ffa458"><path d="M38.7-11.15Q39.35-11.15 39.73-10.55 40.1-9.95 40.1-8.9L40.1-8.9Q40.1-6.95 39.15-5.8L39.15-5.8Q36.35-2.45 33.73-1.1 31.1 0.25 27.4 0.25L27.4 0.25Q24.8 0.25 22.6-0.4 20.4-1.05 17.25-2.35L17.25-2.35Q14.4-3.6 11.75-4.4L11.75-4.4Q9.2 0.25 4.1 0.25L4.1 0.25Q1.3 0.25-0.38-1.03-2.05-2.3-2.05-4.3L-2.05-4.3Q-2.05-6.75 0.3-8.38 2.65-10 6.55-10L6.55-10 7.2-10 8.1-24.55Q8.4-29.55 9.9-32.8 11.4-36.05 14.05-38.35L14.05-38.35Q16.35-40.35 19.3-41.38 22.25-42.4 25.55-42.4L25.55-42.4Q30.95-42.4 33.85-39.6 36.75-36.8 36.75-32.3L36.75-32.3Q36.75-29.25 35.65-27.38 34.55-25.5 32.6-25.5L32.6-25.5Q31.2-25.5 30.4-26.18 29.6-26.85 29.6-28.1L29.6-28.1Q29.6-28.55 29.8-29.75L29.8-29.75Q30.1-31.15 30.1-32.25L30.1-32.25Q30.1-34.35 28.88-35.58 27.65-36.8 25.15-36.8L25.15-36.8Q20.75-36.8 18.35-33.93 15.95-31.05 15.3-24.9L15.3-24.9 14.15-13.55Q13.9-11.15 13.5-9.4L13.5-9.4Q16.7-8.85 21.5-7.65L21.5-7.65Q24.3-6.95 25.8-6.65 27.3-6.35 28.45-6.35L28.45-6.35Q31.35-6.35 33.43-7.33 35.5-8.3 37.35-10.45L37.35-10.45Q37.95-11.15 38.7-11.15L38.7-11.15ZM65.55-15.35Q66.2-15.35 66.55-14.7 66.9-14.05 66.9-13.05L66.9-13.05Q66.9-10.65 65.45-10.2L65.45-10.2Q62.45-9.15 58.85-9L58.85-9Q57.9-4.8 55.1-2.27 52.3 0.25 48.75 0.25L48.75 0.25Q45.75 0.25 43.62-1.2 41.5-2.65 40.4-5.05 39.3-7.45 39.3-10.25L39.3-10.25Q39.3-14.05 40.75-17.03 42.2-20 44.75-21.68 47.3-23.35 50.4-23.35L50.4-23.35Q54.2-23.35 56.52-20.73 58.85-18.1 59.25-14.25L59.25-14.25Q61.6-14.4 64.85-15.25L64.85-15.25Q65.25-15.35 65.55-15.35L65.55-15.35ZM49.15-5.05Q50.75-5.05 51.92-6.35 53.1-7.65 53.5-10.1L53.5-10.1Q51.95-11.15 51.12-12.85 50.3-14.55 50.3-16.45L50.3-16.45Q50.3-17.25 50.45-18.05L50.45-18.05 50.2-18.05Q48.2-18.05 46.87-16.13 45.55-14.2 45.55-10.7L45.55-10.7Q45.55-7.95 46.62-6.5 47.7-5.05 49.15-5.05L49.15-5.05ZM67.7 0.25Q65.45 0.25 64.02-1.83 62.6-3.9 62.6-7L62.6-7Q62.6-10.75 63.1-13.88 63.6-17 64.75-20.5L64.75-20.5Q65.25-22 66.15-22.65 67.05-23.3 69-23.3L69-23.3Q70.1-23.3 70.52-22.95 70.95-22.6 70.95-21.9L70.95-21.9Q70.95-21.5 70.4-19.2L70.4-19.2Q69.9-17.35 69.6-15.85L69.6-15.85Q68.6-10.6 68.6-8.85L68.6-8.85Q68.6-7.8 68.85-7.38 69.1-6.95 69.65-6.95L69.65-6.95Q70.4-6.95 71.52-8.45 72.65-9.95 73.92-13 75.2-16.05 76.4-20.5L76.4-20.5Q76.8-22 77.62-22.65 78.45-23.3 80.1-23.3L80.1-23.3Q81.25-23.3 81.7-23.03 82.15-22.75 82.15-22L82.15-22Q82.15-20.75 80.9-15.15L80.9-15.15Q79.5-8.75 79.5-7.25L79.5-7.25Q79.5-6.3 79.9-5.78 80.3-5.25 80.95-5.25L80.95-5.25Q81.95-5.25 83.32-6.48 84.7-7.7 87-10.45L87-10.45Q87.6-11.15 88.35-11.15L88.35-11.15Q89-11.15 89.37-10.55 89.75-9.95 89.75-8.9L89.75-8.9Q89.75-6.9 88.8-5.8L88.8-5.8Q86.65-3.15 84.17-1.45 81.7 0.25 78.55 0.25L78.55 0.25Q76.15 0.25 75.02-1.6 73.9-3.45 73.9-6.8L73.9-6.8Q73.05-3.4 71.35-1.58 69.65 0.25 67.7 0.25L67.7 0.25ZM92.24-26.6Q90.14-26.6 89.09-27.58 88.04-28.55 88.04-30.3L88.04-30.3Q88.04-32.05 89.42-33.23 90.79-34.4 92.84-34.4L92.84-34.4Q94.69-34.4 95.84-33.5 96.99-32.6 96.99-30.95L96.99-30.95Q96.99-28.95 95.69-27.78 94.39-26.6 92.24-26.6L92.24-26.6ZM91.84 0.25Q88.59 0.25 87.12-2.05 85.64-4.35 85.64-8.15L85.64-8.15Q85.64-10.4 86.22-13.93 86.79-17.45 87.69-20.5L87.69-20.5Q88.14-22.1 88.89-22.7 89.64-23.3 91.29-23.3L91.29-23.3Q93.84-23.3 93.84-21.6L93.84-21.6Q93.84-20.35 92.89-15.8L92.89-15.8Q91.69-10.3 91.69-8.35L91.69-8.35Q91.69-6.85 92.09-6.05 92.49-5.25 93.44-5.25L93.44-5.25Q94.34-5.25 95.69-6.5 97.04-7.75 99.29-10.45L99.29-10.45Q99.89-11.15 100.64-11.15L100.64-11.15Q101.29-11.15 101.67-10.55 102.04-9.95 102.04-8.9L102.04-8.9Q102.04-6.9 101.09-5.8L101.09-5.8Q96.14 0.25 91.84 0.25L91.84 0.25ZM107.29 1.35Q104.69 1.35 103.32 0.15 101.94-1.05 101.94-2.55L101.94-2.55Q101.94-3.85 102.89-4.8 103.84-5.75 105.69-5.75L105.69-5.75Q106.34-5.75 107.22-5.63 108.09-5.5 108.54-5.45L108.54-5.45Q108.49-6.75 107.97-7.9 107.44-9.05 106.64-10.13 105.84-11.2 105.14-12L105.14-12Q103.59-9.05 102.07-7.1 100.54-5.15 98.74-3.4L98.74-3.4Q97.84-2.5 96.84-2.5L96.84-2.5Q96.04-2.5 95.54-3.08 95.04-3.65 95.04-4.5L95.04-4.5Q95.04-5.5 95.74-6.35L95.74-6.35 96.39-7.15Q99.14-10.55 100.54-12.75L100.54-12.75Q101.39-14.2 102.54-16.63 103.69-19.05 104.79-21.65L104.79-21.65Q105.74-23.85 108.74-23.85L108.74-23.85Q110.14-23.85 110.69-23.6 111.24-23.35 111.24-22.8L111.24-22.8Q111.24-22.5 111.04-21.85 110.84-21.2 110.49-20.55L110.49-20.55Q109.59-18.75 109.59-17.5L109.59-17.5Q109.59-16.75 110.12-15.85 110.64-14.95 111.74-13.6L111.74-13.6Q113.34-11.5 114.17-10.03 114.99-8.55 114.99-6.8L114.99-6.8Q114.99-6.3 114.89-5.4L114.89-5.4Q117.34-6.35 120.64-10.45L120.64-10.45Q121.24-11.15 121.99-11.15L121.99-11.15Q122.64-11.15 123.02-10.55 123.39-9.95 123.39-8.9L123.39-8.9Q123.39-7 122.44-5.8L122.44-5.8Q119.94-2.7 117.67-1.58 115.39-0.45 112.04-0.35L112.04-0.35Q110.04 1.35 107.29 1.35L107.29 1.35ZM129.79 0.25Q127.59 0.25 126.46-0.95 125.34-2.15 125.34-4.1L125.34-4.1Q125.34-6.35 126.61-7.7 127.89-9.05 130.19-9.05L130.19-9.05Q132.39-9.05 133.51-7.98 134.64-6.9 134.64-4.8L134.64-4.8Q134.64-2.5 133.34-1.13 132.04 0.25 129.79 0.25L129.79 0.25ZM167.59-11.15Q168.24-11.15 168.61-10.55 168.99-9.95 168.99-8.9L168.99-8.9Q168.99-6.9 168.04-5.8L168.04-5.8Q165.99-3.3 163.54-1.53 161.09 0.25 158.69 0.25L158.69 0.25Q154.89 0.25 152.89-4.2L152.89-4.2Q150.79-1.55 149.21-0.65 147.64 0.25 145.54 0.25L145.54 0.25Q142.49 0.25 140.51-2.02 138.54-4.3 138.54-7.95L138.54-7.95Q138.54-11.95 140.24-15.38 141.94-18.8 144.91-20.98 147.89-23.15 151.59-23.55L151.59-23.55Q152.54-33.25 155.21-40.13 157.89-47 162.24-47L162.24-47Q164.39-47 165.81-45.05 167.24-43.1 167.24-39.15L167.24-39.15Q167.24-33.55 164.49-26.05 161.74-18.55 157.14-10.65L157.14-10.65Q157.34-7.75 158.01-6.5 158.69-5.25 159.74-5.25L159.74-5.25Q161.09-5.25 162.49-6.45 163.89-7.65 166.24-10.45L166.24-10.45Q166.84-11.15 167.59-11.15L167.59-11.15ZM161.69-42.1Q160.74-42.1 159.79-38.73 158.84-35.35 158.16-29.9 157.49-24.45 157.19-18.5L157.19-18.5Q162.79-30.7 162.79-38.1L162.79-38.1Q162.79-40 162.46-41.05 162.14-42.1 161.69-42.1L161.69-42.1ZM147.29-4.8Q148.24-4.8 149.19-5.58 150.14-6.35 151.59-8.45L151.59-8.45Q151.09-11.15 151.09-14.5L151.09-14.5Q151.09-15.7 151.19-18.4L151.19-18.4Q148.44-17.55 146.61-14.73 144.79-11.9 144.79-8.45L144.79-8.45Q144.79-4.8 147.29-4.8L147.29-4.8ZM187.23-11.15Q187.88-11.15 188.26-10.55 188.63-9.95 188.63-8.9L188.63-8.9Q188.63-6.9 187.68-5.8L187.68-5.8Q185.83-3.55 182.46-1.65 179.08 0.25 175.23 0.25L175.23 0.25Q169.98 0.25 167.08-2.6 164.18-5.45 164.18-10.4L164.18-10.4Q164.18-13.85 165.63-16.82 167.08-19.8 169.66-21.55 172.23-23.3 175.48-23.3L175.48-23.3Q178.38-23.3 180.13-21.58 181.88-19.85 181.88-16.9L181.88-16.9Q181.88-13.45 179.41-10.98 176.93-8.5 171.03-7.05L171.03-7.05Q172.28-4.75 175.78-4.75L175.78-4.75Q178.03-4.75 180.91-6.33 183.78-7.9 185.88-10.45L185.88-10.45Q186.48-11.15 187.23-11.15L187.23-11.15ZM174.63-18.4Q172.78-18.4 171.51-16.25 170.23-14.1 170.23-11.05L170.23-11.05 170.23-10.95Q173.18-11.65 174.88-13.05 176.58-14.45 176.58-16.3L176.58-16.3Q176.58-17.25 176.06-17.82 175.53-18.4 174.63-18.4L174.63-18.4ZM209.58-15.2Q209.73-15.25 210.08-15.25L210.08-15.25Q210.83-15.25 211.23-14.75 211.63-14.25 211.63-13.4L211.63-13.4Q211.63-11.85 211.03-10.98 210.43-10.1 209.23-9.7L209.23-9.7Q206.93-8.95 204.33-8.95L204.33-8.95Q202.13-8.95 200.18-9.55L200.18-9.55Q198.73-7.2 196.98-4.7L196.98-4.7Q194.98-1.85 193.53-0.8 192.08 0.25 190.23 0.25L190.23 0.25Q188.18 0.25 187.01-1.35 185.83-2.95 185.53-6.4L185.53-6.4Q184.93-13.4 184.93-18.65L184.93-18.65 184.93-20.4Q184.98-22.05 185.83-22.7 186.68-23.35 188.38-23.35L188.38-23.35Q189.68-23.35 190.31-22.78 190.93-22.2 190.93-20.85L190.93-20.85Q190.93-15.1 191.63-5.9L191.63-5.9Q194.63-10.35 196.13-13L196.13-13Q195.38-14.45 195.38-16.45L195.38-16.45Q195.38-18.15 196.13-19.75 196.88-21.35 198.18-22.35 199.48-23.35 201.13-23.35L201.13-23.35Q202.58-23.35 203.48-22.33 204.38-21.3 204.38-19.35L204.38-19.35Q204.38-17.1 203.18-14.2L203.18-14.2Q205.08-14.3 208.23-14.95L208.23-14.95 209.58-15.2Z" opacity="1" transform="matrix(1,0,0,1,0,0)" fill="#ffa458" class="wordmark-text-0" data-fill-palette-color="primary" id="text-0"></path></svg></g></svg></g></svg></g></svg></g><g></g></svg></g><defs></defs></svg><rect width="395.52" height="89.48709405708937" fill="none" stroke="none" visibility="hidden"></rect></g></svg></g></svg>